<?xml version="1.0" encoding="UTF-8" standalone="no"?>
<!-- Created with Inkscape (http://www.inkscape.org/) -->

<svg
   xmlns:dc="http://purl.org/dc/elements/1.1/"
   xmlns:cc="http://creativecommons.org/ns#"
   xmlns:rdf="http://www.w3.org/1999/02/22-rdf-syntax-ns#"
   xmlns:svg="http://www.w3.org/2000/svg"
   xmlns="http://www.w3.org/2000/svg"
   xmlns:sodipodi="http://sodipodi.sourceforge.net/DTD/sodipodi-0.dtd"
   xmlns:inkscape="http://www.inkscape.org/namespaces/inkscape"
   width="167.5"
   height="114.16666"
   id="svg2985"
   version="1.1"
   inkscape:version="0.48.4 r9939"
   sodipodi:docname="schweinenase.svg">
  <defs
     id="defs3" />
  <sodipodi:namedview
     id="base"
     pagecolor="#ffffff"
     bordercolor="#666666"
     borderopacity="1.0"
     inkscape:pageopacity="0.0"
     inkscape:pageshadow="2"
     inkscape:zoom="1.2"
     inkscape:cx="-47.083331"
     inkscape:cy="-7.5000009"
     inkscape:document-units="mm"
     inkscape:current-layer="layer1"
     showgrid="false"
     inkscape:window-width="1855"
     inkscape:window-height="1056"
     inkscape:window-x="65"
     inkscape:window-y="24"
     inkscape:window-maximized="1"
     units="mm"
     fit-margin-top="0"
     fit-margin-left="0"
     fit-margin-right="0"
     fit-margin-bottom="0" />
  <metadata
     id="metadata2989">
    <rdf:RDF>
      <cc:Work
         rdf:about="">
        <dc:format>image/svg+xml</dc:format>
        <dc:type
           rdf:resource="http://purl.org/dc/dcmitype/StillImage" />
        <dc:title />
      </cc:Work>
    </rdf:RDF>
  </metadata>
  <g
     inkscape:label="Layer 1"
     inkscape:groupmode="layer"
     id="layer1"
     transform="translate(-80,-35.498694)">
    <path
       sodipodi:type="arc"
       style="fill:#ff4685;fill-opacity:1;fill-rule:evenodd;stroke:none"
       id="path2992"
       sodipodi:cx="191.25"
       sodipodi:cy="110.91536"
       sodipodi:rx="83.75"
       sodipodi:ry="57.083332"
       d="m 275,110.91536 c 0,31.52625 -37.49615,57.08333 -83.75,57.08333 -46.25385,0 -83.75,-25.55708 -83.75,-57.08333 0,-31.526254 37.49615,-57.083333 83.75,-57.083333 46.25385,0 83.75,25.557079 83.75,57.083333 z"
       transform="translate(-27.5,-18.333333)" />
    <path
       sodipodi:type="arc"
       style="fill:#d90047;fill-opacity:1"
       id="path3764"
       sodipodi:cx="34.166668"
       sodipodi:cy="58.415359"
       sodipodi:rx="17.5"
       sodipodi:ry="16.25"
       d="m 51.666668,58.415359 c 0,8.974628 -7.835017,16.25 -17.5,16.25 -9.664983,0 -17.5,-7.275372 -17.5,-16.25 0,-8.974627 7.835017,-16.25 17.5,-16.25 9.664983,0 17.5,7.275373 17.5,16.25 z"
       transform="translate(95.833333,32.5)" />
    <path
       sodipodi:type="arc"
       style="fill:#d90047;fill-opacity:1"
       id="path3764-3"
       sodipodi:cx="34.166668"
       sodipodi:cy="58.415359"
       sodipodi:rx="17.5"
       sodipodi:ry="16.25"
       d="m 51.666668,58.415359 c 0,8.974628 -7.835017,16.25 -17.5,16.25 -9.664983,0 -17.5,-7.275372 -17.5,-16.25 0,-8.974627 7.835017,-16.25 17.5,-16.25 9.664983,0 17.5,7.275373 17.5,16.25 z"
       transform="translate(162.5,32.916667)" />
  </g>
</svg>
